<svg version="1.1" id="Layer_1" xmlns="http://www.w3.org/2000/svg" x="0" y="0" viewBox="0 0 256 256" style="enable-background:new 0 0 256 256" xml:space="preserve"><style>.st0{fill:#3a312a}</style><path style="fill:#ed6e7a" d="M16.995 17v222l62.332-32.33V49.33z"/><path class="st0" d="m80.018 47.999-62.332-32.33a1.499 1.499 0 0 0-2.191 1.332V74.4a1.5 1.5 0 1 0 3 0V19.468l59.332 30.774v155.517l-59.332 30.774V88.601a1.5 1.5 0 1 0-3 0V239a1.5 1.5 0 0 0 2.19 1.332l62.332-32.33a1.5 1.5 0 0 0 .81-1.332V49.33c0-.56-.312-1.074-.809-1.331z"/><path style="fill:#d6df58" d="m150.863 45.023-12.39-6.426L96.834 17v222l62.332-32.33V49.33z"/><path class="st0" d="m159.856 47.999-8.304-4.307a1.5 1.5 0 1 0-1.38 2.663l7.494 3.887v155.517l-59.332 30.774V19.468l39.448 20.461a1.497 1.497 0 0 0 2.021-.641 1.499 1.499 0 0 0-.641-2.022L97.524 15.668A1.499 1.499 0 0 0 95.333 17v222a1.5 1.5 0 0 0 2.19 1.332l62.332-32.33a1.5 1.5 0 0 0 .81-1.332V49.33a1.495 1.495 0 0 0-.809-1.331z"/><path style="fill:#8ac5dc" d="M176.673 17v222l62.332-32.33V49.33z"/><path class="st0" d="m239.695 47.999-62.332-32.33a1.499 1.499 0 0 0-2.191 1.332v222a1.5 1.5 0 0 0 2.19 1.332l62.332-32.33a1.5 1.5 0 0 0 .81-1.332V49.33a1.497 1.497 0 0 0-.809-1.331zm-2.19 157.759-59.332 30.774V19.468l59.332 30.774v155.516z"/><path d="M178.17 19.47v7.78l40.866 21.194a6.42 6.42 0 0 1 3.464 5.698v147.716a6.418 6.418 0 0 1-3.464 5.698L178.17 228.75v7.78l59.33-30.77V50.24l-59.33-30.77z" style="fill:#6ca8bf"/></svg>